<svg xmlns="http://www.w3.org/2000/svg" width="17" height="17" fill="none">
    <path fill="#AE6B3F" d="M8.5 2.53a.647.647 0 0 1 .647.646V9.38l1.484-1.484a.647.647 0 0 1 .915.915L8.957 11.4a.647.647 0 0 1-.915 0L5.454 8.81a.647.647 0 1 1 .915-.915L7.853 9.38V3.176A.647.647 0 0 1 8.5 2.53Z"/><path fill="#AE6B3F" d="M4.618 11.588a.647.647 0 1 0-1.295 0v.389c0 1.217.983 2.2 2.2 2.2h5.953c1.218 0 2.2-.983 2.2-2.2v-.389a.647.647 0 1 0-1.294 0v.389a.902.902 0 0 1-.906.905H5.523a.902.902 0 0 1-.905-.905v-.389Z"/>
</svg>
