<svg xmlns="http://www.w3.org/2000/svg" width="17" height="17" fill="none">
    <path stroke="#AE6B3F" stroke-linecap="round" stroke-linejoin="round" stroke-width="1.294" d="M7.206 3.824H6.04c-.725 0-1.087 0-1.364.14a1.294 1.294 0 0 0-.565.566c-.141.277-.141.64-.141 1.364v4.918c0 .725 0 1.087.14 1.364.125.243.323.441.566.565.276.141.639.141 1.362.141h4.922c.723 0 1.085 0 1.361-.14.244-.125.442-.323.566-.566.141-.277.141-.639.141-1.362V9.647m.648-3.235V3.177m0 0H10.44m3.236 0-4.53 4.529"/>
</svg>
