<svg xmlns="http://www.w3.org/2000/svg" width="193" height="27" fill="none"><path stroke="#AE6B3F" stroke-linecap="round" stroke-linejoin="round" d="M6.277 6.625a3.18 3.18 0 0 0-1.598.43 3.158 3.158 0 0 0-1.162 1.173 3.137 3.137 0 0 0 .05 3.179 3.171 3.171 0 0 0-1.842 1.088 3.14 3.14 0 0 0 0 4.011c.468.565 1.12.95 1.842 1.088m2.71-10.969c0-.696.278-1.364.773-1.856a2.646 2.646 0 0 1 3.732 0c.495.492.773 1.16.773 1.856v15.75c0 .696-.278 1.364-.773 1.856a2.647 2.647 0 0 1-3.732 0 2.618 2.618 0 0 1-.773-1.856 3.181 3.181 0 0 1-1.598-.43 3.158 3.158 0 0 1-1.161-1.173 3.136 3.136 0 0 1 .049-3.178m2.71-10.969c0 .859.415 1.621 1.055 2.1m-3.765 8.87a3.164 3.164 0 0 1 1.654-1.341m13.987-9.367L16.833 9.25h-2.111m4.486 12.863-2.375-2.363h-2.111m4.486-5.25h-4.486m3.695-7.612a.786.786 0 0 0 .791.787.794.794 0 0 0 .792-.787.794.794 0 0 0-1.583 0Zm0 15.225c0-.21.083-.41.231-.557a.794.794 0 0 1 1.352.556.794.794 0 0 1-1.583 0Zm0-7.613c0 .209.083.41.231.557A.794.794 0 0 0 20 14.5a.794.794 0 0 0-1.583 0Z"/><path fill="#AE6B3F" d="M32.26 7V3.087h9.797V7H32.26Zm0 8.64v-3.725h9.484v3.725H32.26ZM29.38 3.087h4.32V25h-4.32V3.087ZM49.15 10.6V25h-3.976V10.6h3.976Zm4.226 4.226a2.99 2.99 0 0 0-.845-.563c-.271-.146-.616-.22-1.033-.22-.501 0-.929.136-1.284.407-.354.272-.626.658-.814 1.159-.167.48-.25 1.064-.25 1.753l-1.127-1.127c0-1.148.22-2.16.657-3.037.439-.897 1.013-1.607 1.722-2.128.71-.543 1.44-.814 2.191-.814.522 0 1.013.094 1.472.281.48.188.866.47 1.158.846l-1.847 3.443Zm6.876 5.697c0 .418.104.783.313 1.096.209.292.49.522.845.689.376.146.783.219 1.221.219.626 0 1.19-.125 1.69-.376a3.33 3.33 0 0 0 1.221-1.127c.313-.5.47-1.095.47-1.784l.5 1.878c0 .919-.26 1.69-.782 2.317-.5.626-1.158 1.095-1.972 1.409a6.76 6.76 0 0 1-2.504.469 5.926 5.926 0 0 1-2.505-.532 4.668 4.668 0 0 1-1.878-1.534c-.459-.689-.688-1.523-.688-2.504 0-1.399.49-2.505 1.47-3.319.982-.814 2.37-1.22 4.164-1.22.919 0 1.722.093 2.41.281.71.188 1.305.418 1.785.689.48.271.824.532 1.033.782v1.879a6.04 6.04 0 0 0-1.91-.94 7.516 7.516 0 0 0-2.19-.312c-.627 0-1.138.083-1.535.25-.396.146-.688.365-.876.657-.188.272-.282.616-.282 1.034Zm-1.565-5.853-1.503-2.755c.752-.397 1.67-.772 2.755-1.127 1.085-.376 2.296-.564 3.631-.564 1.232 0 2.327.178 3.287.533.96.354 1.712.876 2.254 1.565.543.668.814 1.492.814 2.473V25h-3.913v-9.36c0-.397-.063-.73-.188-1.002a1.656 1.656 0 0 0-.595-.72 2.413 2.413 0 0 0-.907-.407 5.203 5.203 0 0 0-1.19-.125c-.668 0-1.304.073-1.91.22a8.05 8.05 0 0 0-2.535 1.064Zm24.307 1.565c0-.96-.188-1.69-.563-2.191-.376-.501-.981-.752-1.816-.752-.563 0-1.064.125-1.503.376-.438.23-.772.563-1.001 1.002-.23.438-.345.96-.345 1.565V25h-4.07V10.6h4.07v2.191c.439-.814 1.013-1.43 1.722-1.847.73-.438 1.607-.657 2.63-.657 1.71 0 2.984.49 3.819 1.471.835.96 1.252 2.306 1.252 4.039V25h-4.195v-8.765ZM91.09.583h3.913V25H91.09V.583Zm9.204 10.017h4.852l-6.198 5.948L105.772 25h-4.821l-6.855-8.452 6.198-5.948Zm10.297-5.009V3.087h13.93V5.59h-5.634V25h-2.661V5.591h-5.635Zm14.063 14.995a7.97 7.97 0 0 0 1.002 1.221c.375.376.803.678 1.283.908a4.192 4.192 0 0 0 1.628.313c.709 0 1.263-.157 1.659-.47.417-.334.626-.782.626-1.346 0-.5-.167-.918-.501-1.252-.313-.355-.72-.647-1.221-.877-.5-.25-1.033-.48-1.596-.688a21.963 21.963 0 0 1-1.91-.877 5.537 5.537 0 0 1-1.596-1.346c-.418-.563-.626-1.262-.626-2.097 0-.856.219-1.565.657-2.129a4.11 4.11 0 0 1 1.753-1.252 6.427 6.427 0 0 1 2.254-.407c.772 0 1.492.125 2.16.376a6.36 6.36 0 0 1 1.816 1.001c.521.418.928.898 1.221 1.44l-2.004 1.284a4.898 4.898 0 0 0-1.503-1.346c-.584-.355-1.252-.532-2.003-.532-.522 0-.97.114-1.346.344-.376.23-.564.584-.564 1.064 0 .376.147.71.439 1.002.292.292.668.553 1.127.783.459.23.939.448 1.44.657.834.334 1.596.7 2.285 1.096.689.375 1.231.834 1.628 1.377.417.543.626 1.242.626 2.097 0 1.253-.459 2.296-1.378 3.13-.897.836-2.087 1.253-3.568 1.253-.96 0-1.826-.167-2.599-.5a6.735 6.735 0 0 1-1.972-1.347c-.521-.543-.918-1.096-1.189-1.659l1.972-1.22Zm12.031-15.934c0-.48.167-.887.501-1.22.354-.335.761-.502 1.221-.502.48 0 .886.167 1.22.501.334.334.501.741.501 1.221 0 .46-.167.866-.501 1.221-.334.334-.74.5-1.22.5-.46 0-.867-.166-1.221-.5-.334-.355-.501-.762-.501-1.22Zm.469 5.948h2.505V25h-2.505V10.6Zm5.471 0h2.818l3.6 9.36 3.913-10.456 4.194 10.519 3.632-9.423h2.817l-6.261 15.496-4.351-10.487-4.101 10.487-6.261-15.496Zm24.596 9.955c0 .542.125 1.012.375 1.409.272.396.637.699 1.096.907.48.188 1.023.282 1.628.282.772 0 1.461-.156 2.066-.47a3.6 3.6 0 0 0 1.471-1.314c.376-.585.564-1.253.564-2.004l.501 1.879c0 .918-.282 1.68-.846 2.285a4.906 4.906 0 0 1-2.034 1.346 6.845 6.845 0 0 1-2.38.438c-.876 0-1.7-.177-2.473-.532a4.632 4.632 0 0 1-1.815-1.597c-.459-.688-.689-1.523-.689-2.504 0-1.398.49-2.515 1.471-3.35 1.002-.855 2.39-1.283 4.164-1.283 1.043 0 1.909.125 2.598.376.71.23 1.273.5 1.691.814.417.292.699.532.845.72v1.47a7.401 7.401 0 0 0-2.254-1.064 8.638 8.638 0 0 0-2.473-.344c-.814 0-1.482.105-2.004.313-.501.209-.876.501-1.127.877-.25.375-.375.824-.375 1.346Zm-.376-6.637-1.221-1.847c.543-.396 1.284-.793 2.223-1.19.96-.396 2.108-.594 3.443-.594 1.127 0 2.108.177 2.943.532.856.334 1.513.824 1.972 1.471.48.647.72 1.44.72 2.38V25h-2.504v-9.986c0-.501-.084-.908-.251-1.221a1.866 1.866 0 0 0-.72-.783 3.052 3.052 0 0 0-1.033-.406 6.061 6.061 0 0 0-1.252-.126c-.71 0-1.356.084-1.941.25a6.671 6.671 0 0 0-1.44.595c-.396.23-.709.428-.939.595ZM183.669.583V25h-2.504V.583h2.504Zm6.731 15.652c0-1.19-.261-2.087-.783-2.692-.501-.606-1.262-.908-2.285-.908-.73 0-1.377.156-1.941.47-.542.312-.97.74-1.283 1.283-.292.542-.439 1.158-.439 1.847h-.813c0-1.148.219-2.16.657-3.037.438-.897 1.033-1.607 1.784-2.128.772-.522 1.659-.783 2.661-.783s1.868.209 2.598.626c.752.417 1.326 1.043 1.722 1.878.418.835.626 1.879.626 3.13V25H190.4v-8.765Z"/><path fill="#D9D9D9" d="M106.003 21.38v-2.26h4.18v2.26h-4.18Z"/></svg>